<?xml version="1.0" encoding="utf-8" standalone="no"?>
<!DOCTYPE svg PUBLIC "-//W3C//DTD SVG 1.1//EN"
  "http://www.w3.org/Graphics/SVG/1.1/DTD/svg11.dtd">
<!-- Created with matplotlib (http://matplotlib.org/) -->
<svg height="288pt" version="1.1" viewBox="0 0 432 288" width="432pt" xmlns="http://www.w3.org/2000/svg" xmlns:xlink="http://www.w3.org/1999/xlink">
 <defs>
  <style type="text/css">
*{stroke-linecap:butt;stroke-linejoin:round;}
  </style>
 </defs>
 <g id="figure_1">
  <g id="patch_1">
   <path d="M 0 288 
L 432 288 
L 432 0 
L 0 0 
z
" style="fill:#ffffff;"/>
  </g>
  <g id="axes_1">
   <g id="LineCollection_1">
    <path clip-path="url(#p0c9dcf5050)" d="M 241.177185 196.520884 
L 180.553323 193.782939 
" style="fill:none;stroke:#808080;"/>
    <path clip-path="url(#p0c9dcf5050)" d="M 241.177185 196.520884 
L 190.636073 139.067461 
" style="fill:none;stroke:#808080;"/>
    <path clip-path="url(#p0c9dcf5050)" d="M 241.177185 196.520884 
L 205.66821 191.867627 
" style="fill:none;stroke:#808080;"/>
    <path clip-path="url(#p0c9dcf5050)" d="M 241.177185 196.520884 
L 335.252001 202.742622 
" style="fill:none;stroke:#808080;"/>
    <path clip-path="url(#p0c9dcf5050)" d="M 241.177185 196.520884 
L 335.553774 247.387442 
" style="fill:none;stroke:#808080;"/>
    <path clip-path="url(#p0c9dcf5050)" d="M 241.177185 196.520884 
L 352.724181 229.078845 
" style="fill:none;stroke:#808080;"/>
    <path clip-path="url(#p0c9dcf5050)" d="M 241.177185 196.520884 
L 236.97426 172.572422 
" style="fill:none;stroke:#808080;"/>
    <path clip-path="url(#p0c9dcf5050)" d="M 241.177185 196.520884 
L 151.197743 140.217973 
" style="fill:none;stroke:#808080;"/>
    <path clip-path="url(#p0c9dcf5050)" d="M 241.177185 196.520884 
L 313.458582 225.598605 
" style="fill:none;stroke:#808080;"/>
    <path clip-path="url(#p0c9dcf5050)" d="M 241.177185 196.520884 
L 268.840804 266.526244 
" style="fill:none;stroke:#808080;"/>
    <path clip-path="url(#p0c9dcf5050)" d="M 241.177185 196.520884 
L 181.595101 234.320712 
" style="fill:none;stroke:#808080;"/>
    <path clip-path="url(#p0c9dcf5050)" d="M 241.177185 196.520884 
L 181.605821 160.197395 
" style="fill:none;stroke:#808080;"/>
    <path clip-path="url(#p0c9dcf5050)" d="M 241.177185 196.520884 
L 198.086514 248.875317 
" style="fill:none;stroke:#808080;"/>
    <path clip-path="url(#p0c9dcf5050)" d="M 241.177185 196.520884 
L 148.540506 169.493382 
" style="fill:none;stroke:#808080;"/>
    <path clip-path="url(#p0c9dcf5050)" d="M 241.177185 196.520884 
L 228.977013 237.912132 
" style="fill:none;stroke:#808080;"/>
    <path clip-path="url(#p0c9dcf5050)" d="M 241.177185 196.520884 
L 209.918155 99.262271 
" style="fill:none;stroke:#808080;"/>
    <path clip-path="url(#p0c9dcf5050)" d="M 180.553323 193.782939 
L 190.636073 139.067461 
" style="fill:none;stroke:#808080;"/>
    <path clip-path="url(#p0c9dcf5050)" d="M 180.553323 193.782939 
L 205.66821 191.867627 
" style="fill:none;stroke:#808080;"/>
    <path clip-path="url(#p0c9dcf5050)" d="M 180.553323 193.782939 
L 236.97426 172.572422 
" style="fill:none;stroke:#808080;"/>
    <path clip-path="url(#p0c9dcf5050)" d="M 180.553323 193.782939 
L 181.605821 160.197395 
" style="fill:none;stroke:#808080;"/>
    <path clip-path="url(#p0c9dcf5050)" d="M 180.553323 193.782939 
L 198.086514 248.875317 
" style="fill:none;stroke:#808080;"/>
    <path clip-path="url(#p0c9dcf5050)" d="M 180.553323 193.782939 
L 148.540506 169.493382 
" style="fill:none;stroke:#808080;"/>
    <path clip-path="url(#p0c9dcf5050)" d="M 180.553323 193.782939 
L 228.977013 237.912132 
" style="fill:none;stroke:#808080;"/>
    <path clip-path="url(#p0c9dcf5050)" d="M 180.553323 193.782939 
L 108.987276 144.933266 
" style="fill:none;stroke:#808080;"/>
    <path clip-path="url(#p0c9dcf5050)" d="M 190.636073 139.067461 
L 205.66821 191.867627 
" style="fill:none;stroke:#808080;"/>
    <path clip-path="url(#p0c9dcf5050)" d="M 190.636073 139.067461 
L 236.97426 172.572422 
" style="fill:none;stroke:#808080;"/>
    <path clip-path="url(#p0c9dcf5050)" d="M 190.636073 139.067461 
L 151.197743 140.217973 
" style="fill:none;stroke:#808080;"/>
    <path clip-path="url(#p0c9dcf5050)" d="M 190.636073 139.067461 
L 159.63448 92.373385 
" style="fill:none;stroke:#808080;"/>
    <path clip-path="url(#p0c9dcf5050)" d="M 190.636073 139.067461 
L 181.605821 160.197395 
" style="fill:none;stroke:#808080;"/>
    <path clip-path="url(#p0c9dcf5050)" d="M 190.636073 139.067461 
L 197.085504 70.995298 
" style="fill:none;stroke:#808080;"/>
    <path clip-path="url(#p0c9dcf5050)" d="M 190.636073 139.067461 
L 184.447991 102.003137 
" style="fill:none;stroke:#808080;"/>
    <path clip-path="url(#p0c9dcf5050)" d="M 190.636073 139.067461 
L 103.126212 93.202011 
" style="fill:none;stroke:#808080;"/>
    <path clip-path="url(#p0c9dcf5050)" d="M 205.66821 191.867627 
L 236.97426 172.572422 
" style="fill:none;stroke:#808080;"/>
    <path clip-path="url(#p0c9dcf5050)" d="M 205.66821 191.867627 
L 181.595101 234.320712 
" style="fill:none;stroke:#808080;"/>
    <path clip-path="url(#p0c9dcf5050)" d="M 205.66821 191.867627 
L 181.605821 160.197395 
" style="fill:none;stroke:#808080;"/>
    <path clip-path="url(#p0c9dcf5050)" d="M 335.252001 202.742622 
L 352.724181 229.078845 
" style="fill:none;stroke:#808080;"/>
    <path clip-path="url(#p0c9dcf5050)" d="M 335.252001 202.742622 
L 313.458582 225.598605 
" style="fill:none;stroke:#808080;"/>
    <path clip-path="url(#p0c9dcf5050)" d="M 335.553774 247.387442 
L 352.724181 229.078845 
" style="fill:none;stroke:#808080;"/>
    <path clip-path="url(#p0c9dcf5050)" d="M 335.553774 247.387442 
L 313.458582 225.598605 
" style="fill:none;stroke:#808080;"/>
    <path clip-path="url(#p0c9dcf5050)" d="M 335.553774 247.387442 
L 403.895153 265.130467 
" style="fill:none;stroke:#808080;"/>
    <path clip-path="url(#p0c9dcf5050)" d="M 352.724181 229.078845 
L 403.895153 265.130467 
" style="fill:none;stroke:#808080;"/>
    <path clip-path="url(#p0c9dcf5050)" d="M 151.197743 140.217973 
L 108.987276 144.933266 
" style="fill:none;stroke:#808080;"/>
    <path clip-path="url(#p0c9dcf5050)" d="M 151.197743 140.217973 
L 103.126212 93.202011 
" style="fill:none;stroke:#808080;"/>
    <path clip-path="url(#p0c9dcf5050)" d="M 151.197743 140.217973 
L 118.387541 94.622525 
" style="fill:none;stroke:#808080;"/>
    <path clip-path="url(#p0c9dcf5050)" d="M 181.605821 160.197395 
L 118.387541 94.622525 
" style="fill:none;stroke:#808080;"/>
    <path clip-path="url(#p0c9dcf5050)" d="M 148.540506 169.493382 
L 118.387541 94.622525 
" style="fill:none;stroke:#808080;"/>
    <path clip-path="url(#p0c9dcf5050)" d="M 209.918155 99.262271 
L 258.380642 50.450222 
" style="fill:none;stroke:#808080;"/>
    <path clip-path="url(#p0c9dcf5050)" d="M 209.918155 99.262271 
L 224.739325 34.670773 
" style="fill:none;stroke:#808080;"/>
    <path clip-path="url(#p0c9dcf5050)" d="M 209.918155 99.262271 
L 184.447991 102.003137 
" style="fill:none;stroke:#808080;"/>
    <path clip-path="url(#p0c9dcf5050)" d="M 209.918155 99.262271 
L 103.126212 93.202011 
" style="fill:none;stroke:#808080;"/>
    <path clip-path="url(#p0c9dcf5050)" d="M 209.918155 99.262271 
L 118.387541 94.622525 
" style="fill:none;stroke:#808080;"/>
    <path clip-path="url(#p0c9dcf5050)" d="M 108.987276 144.933266 
L 103.126212 93.202011 
" style="fill:none;stroke:#808080;"/>
    <path clip-path="url(#p0c9dcf5050)" d="M 108.987276 144.933266 
L 118.387541 94.622525 
" style="fill:none;stroke:#808080;"/>
    <path clip-path="url(#p0c9dcf5050)" d="M 159.63448 92.373385 
L 118.387541 94.622525 
" style="fill:none;stroke:#808080;"/>
    <path clip-path="url(#p0c9dcf5050)" d="M 197.085504 70.995298 
L 153.353961 48.240082 
" style="fill:none;stroke:#808080;"/>
    <path clip-path="url(#p0c9dcf5050)" d="M 197.085504 70.995298 
L 258.380642 50.450222 
" style="fill:none;stroke:#808080;"/>
    <path clip-path="url(#p0c9dcf5050)" d="M 197.085504 70.995298 
L 118.387541 94.622525 
" style="fill:none;stroke:#808080;"/>
    <path clip-path="url(#p0c9dcf5050)" d="M 184.447991 102.003137 
L 118.387541 94.622525 
" style="fill:none;stroke:#808080;"/>
    <path clip-path="url(#p0c9dcf5050)" d="M 103.126212 93.202011 
L 34.061862 97.831742 
" style="fill:none;stroke:#808080;"/>
    <path clip-path="url(#p0c9dcf5050)" d="M 103.126212 93.202011 
L 47.592878 65.383891 
" style="fill:none;stroke:#808080;"/>
    <path clip-path="url(#p0c9dcf5050)" d="M 103.126212 93.202011 
L 43.583099 116.893271 
" style="fill:none;stroke:#808080;"/>
    <path clip-path="url(#p0c9dcf5050)" d="M 103.126212 93.202011 
L 28.199687 78.82391 
" style="fill:none;stroke:#808080;"/>
    <path clip-path="url(#p0c9dcf5050)" d="M 103.126212 93.202011 
L 65.25197 51.167911 
" style="fill:none;stroke:#808080;"/>
    <path clip-path="url(#p0c9dcf5050)" d="M 103.126212 93.202011 
L 153.353961 48.240082 
" style="fill:none;stroke:#808080;"/>
    <path clip-path="url(#p0c9dcf5050)" d="M 103.126212 93.202011 
L 106.463301 43.724 
" style="fill:none;stroke:#808080;"/>
    <path clip-path="url(#p0c9dcf5050)" d="M 103.126212 93.202011 
L 118.387541 94.622525 
" style="fill:none;stroke:#808080;"/>
    <path clip-path="url(#p0c9dcf5050)" d="M 118.387541 94.622525 
L 34.061862 97.831742 
" style="fill:none;stroke:#808080;"/>
    <path clip-path="url(#p0c9dcf5050)" d="M 118.387541 94.622525 
L 47.592878 65.383891 
" style="fill:none;stroke:#808080;"/>
    <path clip-path="url(#p0c9dcf5050)" d="M 118.387541 94.622525 
L 43.583099 116.893271 
" style="fill:none;stroke:#808080;"/>
    <path clip-path="url(#p0c9dcf5050)" d="M 118.387541 94.622525 
L 28.199687 78.82391 
" style="fill:none;stroke:#808080;"/>
    <path clip-path="url(#p0c9dcf5050)" d="M 118.387541 94.622525 
L 65.25197 51.167911 
" style="fill:none;stroke:#808080;"/>
    <path clip-path="url(#p0c9dcf5050)" d="M 118.387541 94.622525 
L 153.353961 48.240082 
" style="fill:none;stroke:#808080;"/>
    <path clip-path="url(#p0c9dcf5050)" d="M 118.387541 94.622525 
L 83.666299 21.610203 
" style="fill:none;stroke:#808080;"/>
    <path clip-path="url(#p0c9dcf5050)" d="M 118.387541 94.622525 
L 106.463301 43.724 
" style="fill:none;stroke:#808080;"/>
    <path clip-path="url(#p0c9dcf5050)" d="M 153.353961 48.240082 
L 224.739325 34.670773 
" style="fill:none;stroke:#808080;"/>
    <path clip-path="url(#p0c9dcf5050)" d="M 153.353961 48.240082 
L 106.463301 43.724 
" style="fill:none;stroke:#808080;"/>
    <path clip-path="url(#p0c9dcf5050)" d="M 224.739325 34.670773 
L 258.380642 50.450222 
" style="fill:none;stroke:#808080;"/>
    <path clip-path="url(#p0c9dcf5050)" d="M 106.463301 43.724 
L 83.666299 21.610203 
" style="fill:none;stroke:#808080;"/>
   </g>
   <g id="PathCollection_1">
    <defs>
     <path d="M 0 8.215838 
C 2.178866 8.215838 4.268784 7.350166 5.809475 5.809475 
C 7.350166 4.268784 8.215838 2.178866 8.215838 0 
C 8.215838 -2.178866 7.350166 -4.268784 5.809475 -5.809475 
C 4.268784 -7.350166 2.178866 -8.215838 0 -8.215838 
C -2.178866 -8.215838 -4.268784 -7.350166 -5.809475 -5.809475 
C -7.350166 -4.268784 -8.215838 -2.178866 -8.215838 0 
C -8.215838 2.178866 -7.350166 4.268784 -5.809475 5.809475 
C -4.268784 7.350166 -2.178866 8.215838 0 8.215838 
z
" id="mdd5e2163b0" style="stroke:#1f78b4;"/>
    </defs>
    <g clip-path="url(#p0c9dcf5050)">
     <use style="fill:#1f78b4;stroke:#1f78b4;" x="241.177185" xlink:href="#mdd5e2163b0" y="196.520884"/>
     <use style="fill:#1f78b4;stroke:#1f78b4;" x="180.553323" xlink:href="#mdd5e2163b0" y="193.782939"/>
     <use style="fill:#1f78b4;stroke:#1f78b4;" x="190.636073" xlink:href="#mdd5e2163b0" y="139.067461"/>
     <use style="fill:#1f78b4;stroke:#1f78b4;" x="205.66821" xlink:href="#mdd5e2163b0" y="191.867627"/>
     <use style="fill:#1f78b4;stroke:#1f78b4;" x="335.252001" xlink:href="#mdd5e2163b0" y="202.742622"/>
     <use style="fill:#1f78b4;stroke:#1f78b4;" x="335.553774" xlink:href="#mdd5e2163b0" y="247.387442"/>
     <use style="fill:#1f78b4;stroke:#1f78b4;" x="352.724181" xlink:href="#mdd5e2163b0" y="229.078845"/>
     <use style="fill:#1f78b4;stroke:#1f78b4;" x="236.97426" xlink:href="#mdd5e2163b0" y="172.572422"/>
     <use style="fill:#1f78b4;stroke:#1f78b4;" x="151.197743" xlink:href="#mdd5e2163b0" y="140.217973"/>
     <use style="fill:#1f78b4;stroke:#1f78b4;" x="313.458582" xlink:href="#mdd5e2163b0" y="225.598605"/>
     <use style="fill:#1f78b4;stroke:#1f78b4;" x="268.840804" xlink:href="#mdd5e2163b0" y="266.526244"/>
     <use style="fill:#1f78b4;stroke:#1f78b4;" x="181.595101" xlink:href="#mdd5e2163b0" y="234.320712"/>
     <use style="fill:#1f78b4;stroke:#1f78b4;" x="181.605821" xlink:href="#mdd5e2163b0" y="160.197395"/>
     <use style="fill:#1f78b4;stroke:#1f78b4;" x="198.086514" xlink:href="#mdd5e2163b0" y="248.875317"/>
     <use style="fill:#1f78b4;stroke:#1f78b4;" x="148.540506" xlink:href="#mdd5e2163b0" y="169.493382"/>
     <use style="fill:#1f78b4;stroke:#1f78b4;" x="228.977013" xlink:href="#mdd5e2163b0" y="237.912132"/>
     <use style="fill:#1f78b4;stroke:#1f78b4;" x="209.918155" xlink:href="#mdd5e2163b0" y="99.262271"/>
     <use style="fill:#1f78b4;stroke:#1f78b4;" x="108.987276" xlink:href="#mdd5e2163b0" y="144.933266"/>
     <use style="fill:#1f78b4;stroke:#1f78b4;" x="159.63448" xlink:href="#mdd5e2163b0" y="92.373385"/>
     <use style="fill:#1f78b4;stroke:#1f78b4;" x="197.085504" xlink:href="#mdd5e2163b0" y="70.995298"/>
     <use style="fill:#1f78b4;stroke:#1f78b4;" x="184.447991" xlink:href="#mdd5e2163b0" y="102.003137"/>
     <use style="fill:#1f78b4;stroke:#1f78b4;" x="103.126212" xlink:href="#mdd5e2163b0" y="93.202011"/>
     <use style="fill:#1f78b4;stroke:#1f78b4;" x="403.895153" xlink:href="#mdd5e2163b0" y="265.130467"/>
     <use style="fill:#1f78b4;stroke:#1f78b4;" x="118.387541" xlink:href="#mdd5e2163b0" y="94.622525"/>
     <use style="fill:#1f78b4;stroke:#1f78b4;" x="34.061862" xlink:href="#mdd5e2163b0" y="97.831742"/>
     <use style="fill:#1f78b4;stroke:#1f78b4;" x="47.592878" xlink:href="#mdd5e2163b0" y="65.383891"/>
     <use style="fill:#1f78b4;stroke:#1f78b4;" x="43.583099" xlink:href="#mdd5e2163b0" y="116.893271"/>
     <use style="fill:#1f78b4;stroke:#1f78b4;" x="28.199687" xlink:href="#mdd5e2163b0" y="78.82391"/>
     <use style="fill:#1f78b4;stroke:#1f78b4;" x="65.25197" xlink:href="#mdd5e2163b0" y="51.167911"/>
     <use style="fill:#1f78b4;stroke:#1f78b4;" x="153.353961" xlink:href="#mdd5e2163b0" y="48.240082"/>
     <use style="fill:#1f78b4;stroke:#1f78b4;" x="224.739325" xlink:href="#mdd5e2163b0" y="34.670773"/>
     <use style="fill:#1f78b4;stroke:#1f78b4;" x="106.463301" xlink:href="#mdd5e2163b0" y="43.724"/>
     <use style="fill:#1f78b4;stroke:#1f78b4;" x="258.380642" xlink:href="#mdd5e2163b0" y="50.450222"/>
     <use style="fill:#1f78b4;stroke:#1f78b4;" x="83.666299" xlink:href="#mdd5e2163b0" y="21.610203"/>
    </g>
   </g>
   <g id="PathCollection_2">
    <defs>
     <path d="M 0 8.660254 
C 2.296726 8.660254 4.499694 7.747755 6.123724 6.123724 
C 7.747755 4.499694 8.660254 2.296726 8.660254 0 
C 8.660254 -2.296726 7.747755 -4.499694 6.123724 -6.123724 
C 4.499694 -7.747755 2.296726 -8.660254 0 -8.660254 
C -2.296726 -8.660254 -4.499694 -7.747755 -6.123724 -6.123724 
C -7.747755 -4.499694 -8.660254 -2.296726 -8.660254 0 
C -8.660254 2.296726 -7.747755 4.499694 -6.123724 6.123724 
C -4.499694 7.747755 -2.296726 8.660254 0 8.660254 
z
" id="mc45f1bf15c" style="stroke:#eb8f90;"/>
    </defs>
    <g clip-path="url(#p0c9dcf5050)">
     <use style="fill:#eb8f90;stroke:#eb8f90;" x="241.177185" xlink:href="#mc45f1bf15c" y="196.520884"/>
     <use style="fill:#eb8f90;stroke:#eb8f90;" x="180.553323" xlink:href="#mc45f1bf15c" y="193.782939"/>
     <use style="fill:#eb8f90;stroke:#eb8f90;" x="190.636073" xlink:href="#mc45f1bf15c" y="139.067461"/>
     <use style="fill:#eb8f90;stroke:#eb8f90;" x="205.66821" xlink:href="#mc45f1bf15c" y="191.867627"/>
     <use style="fill:#eb8f90;stroke:#eb8f90;" x="236.97426" xlink:href="#mc45f1bf15c" y="172.572422"/>
     <use style="fill:#eb8f90;stroke:#eb8f90;" x="159.63448" xlink:href="#mc45f1bf15c" y="92.373385"/>
     <use style="fill:#eb8f90;stroke:#eb8f90;" x="268.840804" xlink:href="#mc45f1bf15c" y="266.526244"/>
     <use style="fill:#eb8f90;stroke:#eb8f90;" x="181.595101" xlink:href="#mc45f1bf15c" y="234.320712"/>
     <use style="fill:#eb8f90;stroke:#eb8f90;" x="181.605821" xlink:href="#mc45f1bf15c" y="160.197395"/>
     <use style="fill:#eb8f90;stroke:#eb8f90;" x="198.086514" xlink:href="#mc45f1bf15c" y="248.875317"/>
     <use style="fill:#eb8f90;stroke:#eb8f90;" x="148.540506" xlink:href="#mc45f1bf15c" y="169.493382"/>
     <use style="fill:#eb8f90;stroke:#eb8f90;" x="228.977013" xlink:href="#mc45f1bf15c" y="237.912132"/>
    </g>
   </g>
   <g id="PathCollection_3">
    <defs>
     <path d="M 0 8.660254 
C 2.296726 8.660254 4.499694 7.747755 6.123724 6.123724 
C 7.747755 4.499694 8.660254 2.296726 8.660254 0 
C 8.660254 -2.296726 7.747755 -4.499694 6.123724 -6.123724 
C 4.499694 -7.747755 2.296726 -8.660254 0 -8.660254 
C -2.296726 -8.660254 -4.499694 -7.747755 -6.123724 -6.123724 
C -7.747755 -4.499694 -8.660254 -2.296726 -8.660254 0 
C -8.660254 2.296726 -7.747755 4.499694 -6.123724 6.123724 
C -4.499694 7.747755 -2.296726 8.660254 0 8.660254 
z
" id="mefa9b36aa4" style="stroke:#ffb471;"/>
    </defs>
    <g clip-path="url(#p0c9dcf5050)">
     <use style="fill:#ffb471;stroke:#ffb471;" x="335.252001" xlink:href="#mefa9b36aa4" y="202.742622"/>
     <use style="fill:#ffb471;stroke:#ffb471;" x="335.553774" xlink:href="#mefa9b36aa4" y="247.387442"/>
     <use style="fill:#ffb471;stroke:#ffb471;" x="352.724181" xlink:href="#mefa9b36aa4" y="229.078845"/>
     <use style="fill:#ffb471;stroke:#ffb471;" x="313.458582" xlink:href="#mefa9b36aa4" y="225.598605"/>
     <use style="fill:#ffb471;stroke:#ffb471;" x="403.895153" xlink:href="#mefa9b36aa4" y="265.130467"/>
    </g>
   </g>
   <g id="PathCollection_4">
    <defs>
     <path d="M 0 8.660254 
C 2.296726 8.660254 4.499694 7.747755 6.123724 6.123724 
C 7.747755 4.499694 8.660254 2.296726 8.660254 0 
C 8.660254 -2.296726 7.747755 -4.499694 6.123724 -6.123724 
C 4.499694 -7.747755 2.296726 -8.660254 0 -8.660254 
C -2.296726 -8.660254 -4.499694 -7.747755 -6.123724 -6.123724 
C -7.747755 -4.499694 -8.660254 -2.296726 -8.660254 0 
C -8.660254 2.296726 -7.747755 4.499694 -6.123724 6.123724 
C -4.499694 7.747755 -2.296726 8.660254 0 8.660254 
z
" id="mdee817ea37" style="stroke:#adbed2;"/>
    </defs>
    <g clip-path="url(#p0c9dcf5050)">
     <use style="fill:#adbed2;stroke:#adbed2;" x="151.197743" xlink:href="#mdee817ea37" y="140.217973"/>
     <use style="fill:#adbed2;stroke:#adbed2;" x="34.061862" xlink:href="#mdee817ea37" y="97.831742"/>
     <use style="fill:#adbed2;stroke:#adbed2;" x="47.592878" xlink:href="#mdee817ea37" y="65.383891"/>
     <use style="fill:#adbed2;stroke:#adbed2;" x="43.583099" xlink:href="#mdee817ea37" y="116.893271"/>
     <use style="fill:#adbed2;stroke:#adbed2;" x="28.199687" xlink:href="#mdee817ea37" y="78.82391"/>
     <use style="fill:#adbed2;stroke:#adbed2;" x="65.25197" xlink:href="#mdee817ea37" y="51.167911"/>
     <use style="fill:#adbed2;stroke:#adbed2;" x="83.666299" xlink:href="#mdee817ea37" y="21.610203"/>
     <use style="fill:#adbed2;stroke:#adbed2;" x="106.463301" xlink:href="#mdee817ea37" y="43.724"/>
     <use style="fill:#adbed2;stroke:#adbed2;" x="108.987276" xlink:href="#mdee817ea37" y="144.933266"/>
     <use style="fill:#adbed2;stroke:#adbed2;" x="103.126212" xlink:href="#mdee817ea37" y="93.202011"/>
     <use style="fill:#adbed2;stroke:#adbed2;" x="118.387541" xlink:href="#mdee817ea37" y="94.622525"/>
    </g>
   </g>
   <g id="PathCollection_5">
    <defs>
     <path d="M 0 8.660254 
C 2.296726 8.660254 4.499694 7.747755 6.123724 6.123724 
C 7.747755 4.499694 8.660254 2.296726 8.660254 0 
C 8.660254 -2.296726 7.747755 -4.499694 6.123724 -6.123724 
C 4.499694 -7.747755 2.296726 -8.660254 0 -8.660254 
C -2.296726 -8.660254 -4.499694 -7.747755 -6.123724 -6.123724 
C -7.747755 -4.499694 -8.660254 -2.296726 -8.660254 0 
C -8.660254 2.296726 -7.747755 4.499694 -6.123724 6.123724 
C -4.499694 7.747755 -2.296726 8.660254 0 8.660254 
z
" id="m3ec69a9a99" style="stroke:#12406a;"/>
    </defs>
    <g clip-path="url(#p0c9dcf5050)">
     <use style="fill:#12406a;stroke:#12406a;" x="153.353961" xlink:href="#m3ec69a9a99" y="48.240082"/>
     <use style="fill:#12406a;stroke:#12406a;" x="258.380642" xlink:href="#m3ec69a9a99" y="50.450222"/>
     <use style="fill:#12406a;stroke:#12406a;" x="224.739325" xlink:href="#m3ec69a9a99" y="34.670773"/>
     <use style="fill:#12406a;stroke:#12406a;" x="197.085504" xlink:href="#m3ec69a9a99" y="70.995298"/>
     <use style="fill:#12406a;stroke:#12406a;" x="184.447991" xlink:href="#m3ec69a9a99" y="102.003137"/>
     <use style="fill:#12406a;stroke:#12406a;" x="209.918155" xlink:href="#m3ec69a9a99" y="99.262271"/>
    </g>
   </g>
   <g id="text_1">
    <g clip-path="url(#p0c9dcf5050)">
     <!-- 0 -->
     <defs>
      <path d="M 31.78125 3.421875 
Q 39.265625 3.421875 42.96875 11.625 
Q 46.6875 19.828125 46.6875 36.375 
Q 46.6875 52.984375 42.96875 61.1875 
Q 39.265625 69.390625 31.78125 69.390625 
Q 24.3125 69.390625 20.59375 61.1875 
Q 16.890625 52.984375 16.890625 36.375 
Q 16.890625 19.828125 20.59375 11.625 
Q 24.3125 3.421875 31.78125 3.421875 
z
M 31.78125 -1.421875 
Q 19.921875 -1.421875 13.25 8.53125 
Q 6.59375 18.5 6.59375 36.375 
Q 6.59375 54.296875 13.25 64.25 
Q 19.921875 74.21875 31.78125 74.21875 
Q 43.703125 74.21875 50.34375 64.25 
Q 56.984375 54.296875 56.984375 36.375 
Q 56.984375 18.5 50.34375 8.53125 
Q 43.703125 -1.421875 31.78125 -1.421875 
z
" id="DejaVuSerif-30"/>
     </defs>
     <g style="fill:#ffffff;" transform="translate(238.632185 198.728384)scale(0.08 -0.08)">
      <use xlink:href="#DejaVuSerif-30"/>
     </g>
    </g>
   </g>
   <g id="text_2">
    <g clip-path="url(#p0c9dcf5050)">
     <!-- 1 -->
     <defs>
      <path d="M 14.203125 0 
L 14.203125 5.171875 
L 26.90625 5.171875 
L 26.90625 65.828125 
L 12.203125 56.296875 
L 12.203125 62.703125 
L 29.984375 74.21875 
L 36.71875 74.21875 
L 36.71875 5.171875 
L 49.421875 5.171875 
L 49.421875 0 
z
" id="DejaVuSerif-31"/>
     </defs>
     <g style="fill:#ffffff;" transform="translate(178.008323 195.990439)scale(0.08 -0.08)">
      <use xlink:href="#DejaVuSerif-31"/>
     </g>
    </g>
   </g>
   <g id="text_3">
    <g clip-path="url(#p0c9dcf5050)">
     <!-- 2 -->
     <defs>
      <path d="M 12.796875 55.515625 
L 7.328125 55.515625 
L 7.328125 68.5 
Q 12.546875 71.296875 17.84375 72.75 
Q 23.140625 74.21875 28.21875 74.21875 
Q 39.59375 74.21875 46.1875 68.703125 
Q 52.78125 63.1875 52.78125 53.71875 
Q 52.78125 43.015625 37.84375 28.125 
Q 36.671875 27 36.078125 26.421875 
L 17.671875 8.015625 
L 48.09375 8.015625 
L 48.09375 17 
L 53.8125 17 
L 53.8125 0 
L 6.78125 0 
L 6.78125 5.328125 
L 28.90625 27.390625 
Q 36.234375 34.71875 39.359375 40.84375 
Q 42.484375 46.96875 42.484375 53.71875 
Q 42.484375 61.078125 38.640625 65.234375 
Q 34.8125 69.390625 28.078125 69.390625 
Q 21.09375 69.390625 17.28125 65.921875 
Q 13.484375 62.453125 12.796875 55.515625 
z
" id="DejaVuSerif-32"/>
     </defs>
     <g style="fill:#ffffff;" transform="translate(188.091073 141.274961)scale(0.08 -0.08)">
      <use xlink:href="#DejaVuSerif-32"/>
     </g>
    </g>
   </g>
   <g id="text_4">
    <g clip-path="url(#p0c9dcf5050)">
     <!-- 3 -->
     <defs>
      <path d="M 9.71875 69.828125 
Q 15.4375 71.96875 20.671875 73.09375 
Q 25.921875 74.21875 30.515625 74.21875 
Q 41.21875 74.21875 47.21875 69.59375 
Q 53.21875 64.984375 53.21875 56.78125 
Q 53.21875 50.203125 49.0625 45.78125 
Q 44.921875 41.359375 37.3125 39.796875 
Q 46.296875 38.53125 51.25 33.28125 
Q 56.203125 28.03125 56.203125 19.671875 
Q 56.203125 9.46875 49.34375 4.015625 
Q 42.484375 -1.421875 29.59375 -1.421875 
Q 23.875 -1.421875 18.421875 -0.1875 
Q 12.984375 1.03125 7.625 3.515625 
L 7.625 17.671875 
L 13.09375 17.671875 
Q 13.578125 10.640625 17.828125 7.03125 
Q 22.078125 3.421875 29.78125 3.421875 
Q 37.25 3.421875 41.578125 7.734375 
Q 45.90625 12.0625 45.90625 19.578125 
Q 45.90625 28.171875 41.453125 32.59375 
Q 37.015625 37.015625 28.421875 37.015625 
L 23.78125 37.015625 
L 23.78125 42 
L 26.21875 42 
Q 34.765625 42 39.03125 45.53125 
Q 43.3125 49.078125 43.3125 56.203125 
Q 43.3125 62.59375 39.796875 65.984375 
Q 36.28125 69.390625 29.6875 69.390625 
Q 23.09375 69.390625 19.453125 66.265625 
Q 15.828125 63.140625 15.1875 56.984375 
L 9.71875 56.984375 
z
" id="DejaVuSerif-33"/>
     </defs>
     <g style="fill:#ffffff;" transform="translate(203.12321 194.075127)scale(0.08 -0.08)">
      <use xlink:href="#DejaVuSerif-33"/>
     </g>
    </g>
   </g>
   <g id="text_5">
    <g clip-path="url(#p0c9dcf5050)">
     <!-- 4 -->
     <defs>
      <path d="M 34.90625 24.703125 
L 34.90625 63.484375 
L 10.015625 24.703125 
z
M 56.390625 0 
L 23.1875 0 
L 23.1875 5.171875 
L 34.90625 5.171875 
L 34.90625 19.484375 
L 3.078125 19.484375 
L 3.078125 24.8125 
L 35.015625 74.21875 
L 44.671875 74.21875 
L 44.671875 24.703125 
L 58.59375 24.703125 
L 58.59375 19.484375 
L 44.671875 19.484375 
L 44.671875 5.171875 
L 56.390625 5.171875 
z
" id="DejaVuSerif-34"/>
     </defs>
     <g style="fill:#ffffff;" transform="translate(332.707001 204.950122)scale(0.08 -0.08)">
      <use xlink:href="#DejaVuSerif-34"/>
     </g>
    </g>
   </g>
   <g id="text_6">
    <g clip-path="url(#p0c9dcf5050)">
     <!-- 5 -->
     <defs>
      <path d="M 50.296875 72.90625 
L 50.296875 64.890625 
L 16.890625 64.890625 
L 16.890625 44 
Q 19.4375 45.75 22.828125 46.625 
Q 26.21875 47.515625 30.421875 47.515625 
Q 42.234375 47.515625 49.0625 40.96875 
Q 55.90625 34.421875 55.90625 23.09375 
Q 55.90625 11.53125 49 5.046875 
Q 42.09375 -1.421875 29.59375 -1.421875 
Q 24.5625 -1.421875 19.28125 -0.1875 
Q 14.015625 1.03125 8.5 3.515625 
L 8.5 17.671875 
L 14.015625 17.671875 
Q 14.453125 10.75 18.421875 7.078125 
Q 22.40625 3.421875 29.59375 3.421875 
Q 37.3125 3.421875 41.453125 8.5 
Q 45.609375 13.578125 45.609375 23.09375 
Q 45.609375 32.5625 41.484375 37.609375 
Q 37.359375 42.671875 29.59375 42.671875 
Q 25.203125 42.671875 21.84375 41.109375 
Q 18.5 39.546875 15.921875 36.28125 
L 11.71875 36.28125 
L 11.71875 72.90625 
z
" id="DejaVuSerif-35"/>
     </defs>
     <g style="fill:#ffffff;" transform="translate(333.008774 249.594942)scale(0.08 -0.08)">
      <use xlink:href="#DejaVuSerif-35"/>
     </g>
    </g>
   </g>
   <g id="text_7">
    <g clip-path="url(#p0c9dcf5050)">
     <!-- 6 -->
     <defs>
      <path d="M 32.71875 3.421875 
Q 39.59375 3.421875 43.296875 8.46875 
Q 47.015625 13.53125 47.015625 23 
Q 47.015625 32.46875 43.296875 37.515625 
Q 39.59375 42.578125 32.71875 42.578125 
Q 25.734375 42.578125 22.0625 37.6875 
Q 18.40625 32.8125 18.40625 23.578125 
Q 18.40625 13.875 22.109375 8.640625 
Q 25.828125 3.421875 32.71875 3.421875 
z
M 16.796875 40.140625 
Q 20.125 43.796875 24.3125 45.59375 
Q 28.515625 47.40625 33.796875 47.40625 
Q 44.671875 47.40625 51 40.859375 
Q 57.328125 34.328125 57.328125 23 
Q 57.328125 11.921875 50.515625 5.25 
Q 43.703125 -1.421875 32.328125 -1.421875 
Q 19.96875 -1.421875 13.328125 7.78125 
Q 6.6875 17 6.6875 34.078125 
Q 6.6875 53.21875 14.546875 63.71875 
Q 22.40625 74.21875 36.71875 74.21875 
Q 40.578125 74.21875 44.828125 73.484375 
Q 49.078125 72.75 53.515625 71.296875 
L 53.515625 59.28125 
L 48 59.28125 
Q 47.40625 64.203125 44.234375 66.796875 
Q 41.0625 69.390625 35.6875 69.390625 
Q 26.21875 69.390625 21.578125 62.203125 
Q 16.9375 55.03125 16.796875 40.140625 
z
" id="DejaVuSerif-36"/>
     </defs>
     <g style="fill:#ffffff;" transform="translate(350.179181 231.286345)scale(0.08 -0.08)">
      <use xlink:href="#DejaVuSerif-36"/>
     </g>
    </g>
   </g>
   <g id="text_8">
    <g clip-path="url(#p0c9dcf5050)">
     <!-- 7 -->
     <defs>
      <path d="M 56.390625 67.921875 
L 27.875 0 
L 20.609375 0 
L 47.796875 64.890625 
L 14.109375 64.890625 
L 14.109375 55.90625 
L 8.40625 55.90625 
L 8.40625 72.90625 
L 56.390625 72.90625 
z
" id="DejaVuSerif-37"/>
     </defs>
     <g style="fill:#ffffff;" transform="translate(234.42926 174.779922)scale(0.08 -0.08)">
      <use xlink:href="#DejaVuSerif-37"/>
     </g>
    </g>
   </g>
   <g id="text_9">
    <g clip-path="url(#p0c9dcf5050)">
     <!-- 8 -->
     <defs>
      <path d="M 46.578125 19.921875 
Q 46.578125 27.734375 42.6875 32.046875 
Q 38.8125 36.375 31.78125 36.375 
Q 24.75 36.375 20.875 32.046875 
Q 17 27.734375 17 19.921875 
Q 17 12.0625 20.875 7.734375 
Q 24.75 3.421875 31.78125 3.421875 
Q 38.8125 3.421875 42.6875 7.734375 
Q 46.578125 12.0625 46.578125 19.921875 
z
M 44.578125 55.328125 
Q 44.578125 61.96875 41.203125 65.671875 
Q 37.84375 69.390625 31.78125 69.390625 
Q 25.78125 69.390625 22.390625 65.671875 
Q 19 61.96875 19 55.328125 
Q 19 48.640625 22.390625 44.921875 
Q 25.78125 41.21875 31.78125 41.21875 
Q 37.84375 41.21875 41.203125 44.921875 
Q 44.578125 48.640625 44.578125 55.328125 
z
M 39.3125 38.8125 
Q 47.609375 37.703125 52.25 32.6875 
Q 56.890625 27.6875 56.890625 19.921875 
Q 56.890625 9.671875 50.390625 4.125 
Q 43.890625 -1.421875 31.78125 -1.421875 
Q 19.734375 -1.421875 13.203125 4.125 
Q 6.6875 9.671875 6.6875 19.921875 
Q 6.6875 27.6875 11.328125 32.6875 
Q 15.96875 37.703125 24.3125 38.8125 
Q 16.9375 40.140625 13 44.40625 
Q 9.078125 48.6875 9.078125 55.328125 
Q 9.078125 64.109375 15.125 69.15625 
Q 21.1875 74.21875 31.78125 74.21875 
Q 42.390625 74.21875 48.4375 69.15625 
Q 54.5 64.109375 54.5 55.328125 
Q 54.5 48.6875 50.5625 44.40625 
Q 46.625 40.140625 39.3125 38.8125 
z
" id="DejaVuSerif-38"/>
     </defs>
     <g style="fill:#ffffff;" transform="translate(148.652743 142.425473)scale(0.08 -0.08)">
      <use xlink:href="#DejaVuSerif-38"/>
     </g>
    </g>
   </g>
   <g id="text_10">
    <g clip-path="url(#p0c9dcf5050)">
     <!-- 10 -->
     <g style="fill:#ffffff;" transform="translate(308.368582 227.806105)scale(0.08 -0.08)">
      <use xlink:href="#DejaVuSerif-31"/>
      <use x="63.623047" xlink:href="#DejaVuSerif-30"/>
     </g>
    </g>
   </g>
   <g id="text_11">
    <g clip-path="url(#p0c9dcf5050)">
     <!-- 11 -->
     <g style="fill:#ffffff;" transform="translate(263.750804 268.733744)scale(0.08 -0.08)">
      <use xlink:href="#DejaVuSerif-31"/>
      <use x="63.623047" xlink:href="#DejaVuSerif-31"/>
     </g>
    </g>
   </g>
   <g id="text_12">
    <g clip-path="url(#p0c9dcf5050)">
     <!-- 12 -->
     <g style="fill:#ffffff;" transform="translate(176.505101 236.528212)scale(0.08 -0.08)">
      <use xlink:href="#DejaVuSerif-31"/>
      <use x="63.623047" xlink:href="#DejaVuSerif-32"/>
     </g>
    </g>
   </g>
   <g id="text_13">
    <g clip-path="url(#p0c9dcf5050)">
     <!-- 13 -->
     <g style="fill:#ffffff;" transform="translate(176.515821 162.404895)scale(0.08 -0.08)">
      <use xlink:href="#DejaVuSerif-31"/>
      <use x="63.623047" xlink:href="#DejaVuSerif-33"/>
     </g>
    </g>
   </g>
   <g id="text_14">
    <g clip-path="url(#p0c9dcf5050)">
     <!-- 17 -->
     <g style="fill:#ffffff;" transform="translate(192.996514 251.082817)scale(0.08 -0.08)">
      <use xlink:href="#DejaVuSerif-31"/>
      <use x="63.623047" xlink:href="#DejaVuSerif-37"/>
     </g>
    </g>
   </g>
   <g id="text_15">
    <g clip-path="url(#p0c9dcf5050)">
     <!-- 19 -->
     <defs>
      <path d="M 46.78125 32.671875 
Q 43.5 29 39.25 27.1875 
Q 35.015625 25.390625 29.6875 25.390625 
Q 18.84375 25.390625 12.5625 31.9375 
Q 6.296875 38.484375 6.296875 49.8125 
Q 6.296875 60.890625 13.109375 67.546875 
Q 19.921875 74.21875 31.296875 74.21875 
Q 43.65625 74.21875 50.265625 65.015625 
Q 56.890625 55.8125 56.890625 38.71875 
Q 56.890625 19.578125 49.015625 9.078125 
Q 41.15625 -1.421875 26.90625 -1.421875 
Q 23.046875 -1.421875 18.796875 -0.6875 
Q 14.546875 0.046875 10.109375 1.515625 
L 10.109375 13.625 
L 15.578125 13.625 
Q 16.21875 8.6875 19.390625 6.046875 
Q 22.5625 3.421875 27.875 3.421875 
Q 37.359375 3.421875 41.984375 10.5625 
Q 46.625 17.71875 46.78125 32.671875 
z
M 30.90625 69.390625 
Q 23.96875 69.390625 20.28125 64.328125 
Q 16.609375 59.28125 16.609375 49.8125 
Q 16.609375 40.328125 20.28125 35.25 
Q 23.96875 30.171875 30.90625 30.171875 
Q 37.84375 30.171875 41.53125 35.078125 
Q 45.21875 39.984375 45.21875 49.21875 
Q 45.21875 58.9375 41.5 64.15625 
Q 37.796875 69.390625 30.90625 69.390625 
z
" id="DejaVuSerif-39"/>
     </defs>
     <g style="fill:#ffffff;" transform="translate(143.450506 171.700882)scale(0.08 -0.08)">
      <use xlink:href="#DejaVuSerif-31"/>
      <use x="63.623047" xlink:href="#DejaVuSerif-39"/>
     </g>
    </g>
   </g>
   <g id="text_16">
    <g clip-path="url(#p0c9dcf5050)">
     <!-- 21 -->
     <g style="fill:#ffffff;" transform="translate(223.887013 240.119632)scale(0.08 -0.08)">
      <use xlink:href="#DejaVuSerif-32"/>
      <use x="63.623047" xlink:href="#DejaVuSerif-31"/>
     </g>
    </g>
   </g>
   <g id="text_17">
    <g clip-path="url(#p0c9dcf5050)">
     <!-- 31 -->
     <g style="fill:#ffffff;" transform="translate(204.828155 101.469771)scale(0.08 -0.08)">
      <use xlink:href="#DejaVuSerif-33"/>
      <use x="63.623047" xlink:href="#DejaVuSerif-31"/>
     </g>
    </g>
   </g>
   <g id="text_18">
    <g clip-path="url(#p0c9dcf5050)">
     <!-- 30 -->
     <g style="fill:#ffffff;" transform="translate(103.897276 147.140766)scale(0.08 -0.08)">
      <use xlink:href="#DejaVuSerif-33"/>
      <use x="63.623047" xlink:href="#DejaVuSerif-30"/>
     </g>
    </g>
   </g>
   <g id="text_19">
    <g clip-path="url(#p0c9dcf5050)">
     <!-- 9 -->
     <g style="fill:#ffffff;" transform="translate(157.08948 94.580885)scale(0.08 -0.08)">
      <use xlink:href="#DejaVuSerif-39"/>
     </g>
    </g>
   </g>
   <g id="text_20">
    <g clip-path="url(#p0c9dcf5050)">
     <!-- 27 -->
     <g style="fill:#ffffff;" transform="translate(191.995504 73.202798)scale(0.08 -0.08)">
      <use xlink:href="#DejaVuSerif-32"/>
      <use x="63.623047" xlink:href="#DejaVuSerif-37"/>
     </g>
    </g>
   </g>
   <g id="text_21">
    <g clip-path="url(#p0c9dcf5050)">
     <!-- 28 -->
     <g style="fill:#ffffff;" transform="translate(179.357991 104.210637)scale(0.08 -0.08)">
      <use xlink:href="#DejaVuSerif-32"/>
      <use x="63.623047" xlink:href="#DejaVuSerif-38"/>
     </g>
    </g>
   </g>
   <g id="text_22">
    <g clip-path="url(#p0c9dcf5050)">
     <!-- 32 -->
     <g style="fill:#ffffff;" transform="translate(98.036212 95.409511)scale(0.08 -0.08)">
      <use xlink:href="#DejaVuSerif-33"/>
      <use x="63.623047" xlink:href="#DejaVuSerif-32"/>
     </g>
    </g>
   </g>
   <g id="text_23">
    <g clip-path="url(#p0c9dcf5050)">
     <!-- 16 -->
     <g style="fill:#ffffff;" transform="translate(398.805153 267.337967)scale(0.08 -0.08)">
      <use xlink:href="#DejaVuSerif-31"/>
      <use x="63.623047" xlink:href="#DejaVuSerif-36"/>
     </g>
    </g>
   </g>
   <g id="text_24">
    <g clip-path="url(#p0c9dcf5050)">
     <!-- 33 -->
     <g style="fill:#ffffff;" transform="translate(113.297541 96.830025)scale(0.08 -0.08)">
      <use xlink:href="#DejaVuSerif-33"/>
      <use x="63.623047" xlink:href="#DejaVuSerif-33"/>
     </g>
    </g>
   </g>
   <g id="text_25">
    <g clip-path="url(#p0c9dcf5050)">
     <!-- 14 -->
     <g style="fill:#ffffff;" transform="translate(28.971862 100.039242)scale(0.08 -0.08)">
      <use xlink:href="#DejaVuSerif-31"/>
      <use x="63.623047" xlink:href="#DejaVuSerif-34"/>
     </g>
    </g>
   </g>
   <g id="text_26">
    <g clip-path="url(#p0c9dcf5050)">
     <!-- 15 -->
     <g style="fill:#ffffff;" transform="translate(42.502878 67.591391)scale(0.08 -0.08)">
      <use xlink:href="#DejaVuSerif-31"/>
      <use x="63.623047" xlink:href="#DejaVuSerif-35"/>
     </g>
    </g>
   </g>
   <g id="text_27">
    <g clip-path="url(#p0c9dcf5050)">
     <!-- 18 -->
     <g style="fill:#ffffff;" transform="translate(38.493099 119.100771)scale(0.08 -0.08)">
      <use xlink:href="#DejaVuSerif-31"/>
      <use x="63.623047" xlink:href="#DejaVuSerif-38"/>
     </g>
    </g>
   </g>
   <g id="text_28">
    <g clip-path="url(#p0c9dcf5050)">
     <!-- 20 -->
     <g style="fill:#ffffff;" transform="translate(23.109687 81.03141)scale(0.08 -0.08)">
      <use xlink:href="#DejaVuSerif-32"/>
      <use x="63.623047" xlink:href="#DejaVuSerif-30"/>
     </g>
    </g>
   </g>
   <g id="text_29">
    <g clip-path="url(#p0c9dcf5050)">
     <!-- 22 -->
     <g style="fill:#ffffff;" transform="translate(60.16197 53.375411)scale(0.08 -0.08)">
      <use xlink:href="#DejaVuSerif-32"/>
      <use x="63.623047" xlink:href="#DejaVuSerif-32"/>
     </g>
    </g>
   </g>
   <g id="text_30">
    <g clip-path="url(#p0c9dcf5050)">
     <!-- 23 -->
     <g style="fill:#ffffff;" transform="translate(148.263961 50.447582)scale(0.08 -0.08)">
      <use xlink:href="#DejaVuSerif-32"/>
      <use x="63.623047" xlink:href="#DejaVuSerif-33"/>
     </g>
    </g>
   </g>
   <g id="text_31">
    <g clip-path="url(#p0c9dcf5050)">
     <!-- 25 -->
     <g style="fill:#ffffff;" transform="translate(219.649325 36.878273)scale(0.08 -0.08)">
      <use xlink:href="#DejaVuSerif-32"/>
      <use x="63.623047" xlink:href="#DejaVuSerif-35"/>
     </g>
    </g>
   </g>
   <g id="text_32">
    <g clip-path="url(#p0c9dcf5050)">
     <!-- 29 -->
     <g style="fill:#ffffff;" transform="translate(101.373301 45.9315)scale(0.08 -0.08)">
      <use xlink:href="#DejaVuSerif-32"/>
      <use x="63.623047" xlink:href="#DejaVuSerif-39"/>
     </g>
    </g>
   </g>
   <g id="text_33">
    <g clip-path="url(#p0c9dcf5050)">
     <!-- 24 -->
     <g style="fill:#ffffff;" transform="translate(253.290642 52.657722)scale(0.08 -0.08)">
      <use xlink:href="#DejaVuSerif-32"/>
      <use x="63.623047" xlink:href="#DejaVuSerif-34"/>
     </g>
    </g>
   </g>
   <g id="text_34">
    <g clip-path="url(#p0c9dcf5050)">
     <!-- 26 -->
     <g style="fill:#ffffff;" transform="translate(78.576299 23.817703)scale(0.08 -0.08)">
      <use xlink:href="#DejaVuSerif-32"/>
      <use x="63.623047" xlink:href="#DejaVuSerif-36"/>
     </g>
    </g>
   </g>
  </g>
 </g>
 <defs>
  <clipPath id="p0c9dcf5050">
   <rect height="288" width="432" x="0" y="0"/>
  </clipPath>
 </defs>
</svg>
